<svg width="14" height="15" viewBox="0 0 14 15" fill="none" xmlns="http://www.w3.org/2000/svg">
<path fill-rule="evenodd" clip-rule="evenodd" d="M11.7133 12.2134C9.09747 14.7398 4.93943 14.7037 2.36788 12.1322C-0.203683 9.56059 -0.239815 5.40256 2.28667 2.7867C4.90253 0.260215 9.06056 0.296347 11.6321 2.86791C14.2037 5.43947 14.2398 9.5975 11.7133 12.2134ZM9.84 5.6067L7.94 7.50003L9.84 9.39336C9.96621 9.51854 10.0372 9.68894 10.0372 9.8667C10.0372 10.0445 9.96621 10.2149 9.84 10.34C9.71419 10.4648 9.54387 10.5344 9.36667 10.5334C9.18946 10.5344 9.01915 10.4648 8.89333 10.34L7 8.44003L5.10667 10.34C4.98085 10.4648 4.81053 10.5344 4.63333 10.5334C4.45613 10.5344 4.28581 10.4648 4.16 10.34C4.03379 10.2149 3.9628 10.0445 3.9628 9.8667C3.9628 9.68894 4.03379 9.51854 4.16 9.39336L6.06 7.50003L4.16 5.6067C3.99089 5.43759 3.92485 5.19111 3.98675 4.96011C4.04864 4.72911 4.22908 4.54868 4.46008 4.48678C4.69108 4.42488 4.93756 4.49092 5.10667 4.66003L7 6.56003L8.89333 4.66003C9.06244 4.49092 9.30892 4.42488 9.53992 4.48678C9.77092 4.54868 9.95135 4.72911 10.0133 4.96011C10.0751 5.19111 10.0091 5.43759 9.84 5.6067ZM3.23226 3.72949C5.31412 1.64686 8.68993 1.64561 10.7733 3.7267C11.7831 4.72265 12.3515 6.08176 12.3515 7.50003C12.3515 8.9183 11.7831 10.2774 10.7733 11.2734C8.68993 13.3545 5.31412 13.3532 3.23226 11.2706C1.1504 9.18793 1.1504 5.81213 3.23226 3.72949Z" fill="#AFBAC3"/>
</svg>
