<svg width="20" height="21" viewBox="0 0 20 21" fill="none" xmlns="http://www.w3.org/2000/svg">
<path fill-rule="evenodd" clip-rule="evenodd" d="M19.842 17.2221C19.842 18.9006 18.5095 20.2613 16.8657 20.2613H2.9763C1.33254 20.2613 0 18.9006 0 17.2221V3.03919C0 1.36069 1.33254 0 2.9763 0H16.8657C18.5095 0 19.842 1.36069 19.842 3.03919V17.2221ZM8.92891 4.05226H14.8815C15.4294 4.05226 15.8736 4.50582 15.8736 5.06532C15.8736 5.62482 15.4294 6.07838 14.8815 6.07838H8.92891C8.38099 6.07838 7.93681 5.62482 7.93681 5.06532C7.93681 4.50582 8.38099 4.05226 8.92891 4.05226ZM5.95261 5.06532C5.95104 4.93294 5.92407 4.80215 5.87324 4.68036C5.823 4.55759 5.75253 4.44451 5.6649 4.34604C5.56846 4.25656 5.45773 4.1846 5.3375 4.1333C4.96805 3.97466 4.5414 4.05859 4.25611 4.34604C4.16848 4.44451 4.09801 4.55759 4.04777 4.68036C3.99694 4.80215 3.96997 4.93294 3.9684 5.06532C3.96688 5.3346 4.07041 5.59341 4.25611 5.7846C4.44623 5.96972 4.69783 6.07465 4.96051 6.07838C5.09065 6.08181 5.21976 6.05405 5.3375 5.99734C5.45773 5.94604 5.56846 5.87408 5.6649 5.7846C5.84619 5.59046 5.94895 5.33355 5.95261 5.06532ZM5.3375 9.19862C4.96805 9.03998 4.5414 9.12391 4.25611 9.41136C4.16424 9.50646 4.09322 9.62042 4.04777 9.74568C3.99694 9.86747 3.96997 9.99826 3.9684 10.1306C3.96688 10.3999 4.07041 10.6587 4.25611 10.8499C4.44623 11.035 4.69783 11.14 4.96051 11.1437C5.09015 11.1421 5.21823 11.1146 5.3375 11.0627C5.45773 11.0114 5.56846 10.9394 5.6649 10.8499L5.78395 10.698C5.8215 10.6415 5.85152 10.5802 5.87324 10.5156C5.90875 10.4594 5.93552 10.3979 5.95261 10.3333C5.95748 10.2658 5.95748 10.1981 5.95261 10.1306C5.94895 9.86241 5.84619 9.6055 5.6649 9.41136C5.56846 9.32188 5.45773 9.24992 5.3375 9.19862ZM8.92891 9.11758H14.8815C15.4294 9.11758 15.8736 9.57114 15.8736 10.1306C15.8736 10.6901 15.4294 11.1437 14.8815 11.1437H8.92891C8.38099 11.1437 7.93681 10.6901 7.93681 10.1306C7.93681 9.57114 8.38099 9.11758 8.92891 9.11758ZM5.6649 14.4767C5.56846 14.3872 5.45773 14.3152 5.3375 14.2639C4.96805 14.1053 4.5414 14.1892 4.25611 14.4767C4.16579 14.573 4.09499 14.6866 4.04777 14.811C3.94164 15.0562 3.94164 15.3357 4.04777 15.5809C4.09499 15.7053 4.16579 15.8189 4.25611 15.9152C4.44623 16.1004 4.69783 16.2053 4.96051 16.209C5.09015 16.2074 5.21823 16.1799 5.3375 16.128C5.45773 16.0767 5.56846 16.0047 5.6649 15.9152C5.75522 15.8189 5.82602 15.7053 5.87324 15.5809C5.97937 15.3357 5.97937 15.0562 5.87324 14.811C5.82602 14.6866 5.75522 14.573 5.6649 14.4767ZM8.92891 14.1829H14.8815C15.4294 14.1829 15.8736 14.6365 15.8736 15.196C15.8736 15.7555 15.4294 16.209 14.8815 16.209H8.92891C8.38099 16.209 7.93681 15.7555 7.93681 15.196C7.93681 14.6365 8.38099 14.1829 8.92891 14.1829ZM16.8657 2.02613C17.4136 2.02613 17.8578 2.47969 17.8578 3.03919V17.2221C17.8578 17.7816 17.4136 18.2352 16.8657 18.2352H2.9763C2.42838 18.2352 1.9842 17.7816 1.9842 17.2221V3.03919C1.9842 2.47969 2.42838 2.02613 2.9763 2.02613H16.8657Z" fill="#231F20"/>
</svg>
