<svg width="14" height="14" viewBox="0 0 14 14" fill="none" xmlns="http://www.w3.org/2000/svg">
<path fill-rule="evenodd" clip-rule="evenodd" d="M13.6666 2.33325V11.6666C13.6666 12.7712 12.7712 13.6666 11.6666 13.6666H2.33331C1.22874 13.6666 0.333313 12.7712 0.333313 11.6666V2.33325C0.333313 1.22868 1.22874 0.333252 2.33331 0.333252H11.6666C12.7712 0.333252 13.6666 1.22868 13.6666 2.33325ZM11 6.99992C11 7.36811 10.7015 7.66658 10.3333 7.66658H7.66665V10.3333C7.66665 10.7014 7.36817 10.9999 6.99998 10.9999C6.63179 10.9999 6.33331 10.7014 6.33331 10.3333V7.66658H3.66665C3.29846 7.66658 2.99998 7.36811 2.99998 6.99992C2.99998 6.63173 3.29846 6.33325 3.66665 6.33325H6.33331V3.66659C6.33331 3.2984 6.63179 2.99992 6.99998 2.99992C7.36817 2.99992 7.66665 3.2984 7.66665 3.66659V6.33325H10.3333C10.7015 6.33325 11 6.63173 11 6.99992ZM11.6666 1.66659C12.0348 1.66659 12.3333 1.96506 12.3333 2.33325V11.6666C12.3333 12.0348 12.0348 12.3333 11.6666 12.3333H2.33331C1.96512 12.3333 1.66665 12.0348 1.66665 11.6666V2.33325C1.66665 1.96506 1.96512 1.66659 2.33331 1.66659H11.6666Z" fill="#231F20"/>
</svg>
