<svg width="20" height="17" viewBox="0 0 20 17" fill="none" xmlns="http://www.w3.org/2000/svg">
<path fill-rule="evenodd" clip-rule="evenodd" d="M17 0.5H3C1.34315 0.5 0 1.84315 0 3.5V13.5C0 15.1569 1.34315 16.5 3 16.5H17C18.6569 16.5 20 15.1569 20 13.5V3.5C20 1.84315 18.6569 0.5 17 0.5ZM18 13.5C18 14.0523 17.5523 14.5 17 14.5H3C2.44772 14.5 2 14.0523 2 13.5V3.5C2 2.94772 2.44772 2.5 3 2.5H17C17.5523 2.5 18 2.94772 18 3.5V13.5ZM12 8.28C12.5476 7.78221 13.2599 7.50441 14 7.5C15.6569 7.5 17 8.84315 17 10.5C17 12.1569 15.6569 13.5 14 13.5C13.2599 13.4956 12.5476 13.2178 12 12.72C11.4524 13.2178 10.7401 13.4956 10 13.5C8.34315 13.5 7 12.1569 7 10.5C7 8.84315 8.34315 7.5 10 7.5C10.7401 7.50441 11.4524 7.78221 12 8.28ZM10 11.5C9.44771 11.5 9 11.0523 9 10.5C9 9.94771 9.44771 9.5 10 9.5C10.5523 9.5 11 9.94771 11 10.5C11 11.0523 10.5523 11.5 10 11.5ZM13 10.5C13 11.0523 13.4477 11.5 14 11.5C14.5523 11.5 15 11.0523 15 10.5C15 9.94771 14.5523 9.5 14 9.5C13.4477 9.5 13 9.94771 13 10.5Z" fill="black"/>
</svg>
