<svg width="14" height="14" viewBox="0 0 14 14" fill="none" xmlns="http://www.w3.org/2000/svg">
<path fill-rule="evenodd" clip-rule="evenodd" d="M3.53333 0.719892L12.1267 5.07323C13.4 5.71989 13.5867 6.59989 13.5867 7.05323C13.5867 7.50656 13.4 8.33323 12.1267 8.99989L3.53333 13.3399C3.17102 13.5302 2.76917 13.6329 2.36 13.6399C2.01266 13.6449 1.67087 13.5525 1.37333 13.3732C0.720366 12.9248 0.354806 12.1632 0.413334 11.3732V2.71989C0.352012 1.9294 0.718209 1.16649 1.37333 0.719892C2.04308 0.339463 2.86359 0.339463 3.53333 0.719892ZM2.93333 12.1332L11.52 7.77989C11.9733 7.54656 12.2533 7.25323 12.2533 7.01989C12.2533 6.78656 11.9733 6.49323 11.52 6.26656L2.90667 1.91323C2.7306 1.81604 2.53429 1.76126 2.33333 1.75323C2.23983 1.75581 2.14834 1.78097 2.06667 1.82656C1.82641 2.03554 1.70635 2.35069 1.74667 2.66656V11.3732C1.70635 11.6891 1.82641 12.0042 2.06667 12.2132C2.3507 12.3335 2.67612 12.3035 2.93333 12.1332Z" fill="#231F20"/>
</svg>
