<svg width="16" height="17" viewBox="0 0 16 17" fill="none" xmlns="http://www.w3.org/2000/svg">
<path fill-rule="evenodd" clip-rule="evenodd" d="M12 4.5C12 2.29086 10.2091 0.5 8 0.5C5.79086 0.5 4 2.29086 4 4.5C4 6.70914 5.79086 8.5 8 8.5H7.2C3.22355 8.5 0 11.7235 0 15.7C0 16.1418 0.358172 16.5 0.8 16.5H15.2C15.6418 16.5 16 16.1418 16 15.7C16 11.7235 12.7765 8.5 8.8 8.5H8C9.06087 8.5 10.0783 8.07857 10.8284 7.32843C11.5786 6.57828 12 5.56087 12 4.5ZM7.20001 10.1C4.4157 10.0993 2.05376 12.1443 1.65601 14.9H14.344C13.9462 12.1443 11.5843 10.0993 8.80001 10.1H7.20001ZM5.6 4.5C5.6 5.82548 6.67452 6.9 8 6.9C8.63652 6.9 9.24697 6.64714 9.69706 6.19706C10.1471 5.74697 10.4 5.13652 10.4 4.5C10.4 3.17452 9.32548 2.1 8 2.1C6.67452 2.1 5.6 3.17452 5.6 4.5Z" fill="#231F20"/>
</svg>
