<svg width="17" height="17" viewBox="0 0 17 17" fill="none" xmlns="http://www.w3.org/2000/svg">
<path fill-rule="evenodd" clip-rule="evenodd" d="M14.0417 0.583252H2.95834C1.64666 0.583252 0.583336 1.64658 0.583336 2.95825V4.54159C0.583336 4.97881 0.937777 5.33325 1.375 5.33325H2.16667V14.0416C2.16667 15.3533 3.22999 16.4166 4.54167 16.4166H12.4583C13.77 16.4166 14.8333 15.3533 14.8333 14.0416V5.33325H15.625C16.0622 5.33325 16.4167 4.97881 16.4167 4.54159V2.95825C16.4167 1.64658 15.3533 0.583252 14.0417 0.583252ZM13.25 14.0416C13.25 14.4788 12.8956 14.8333 12.4583 14.8333H4.54167C4.10444 14.8333 3.75 14.4788 3.75 14.0416V5.33325H13.25V14.0416ZM2.16667 3.74992H14.8333V2.95825C14.8333 2.52103 14.4789 2.16659 14.0417 2.16659H2.95834C2.52111 2.16659 2.16667 2.52103 2.16667 2.95825V3.74992ZM5.33334 12.4583V7.70825C5.33334 7.27103 5.68778 6.91659 6.125 6.91659C6.56223 6.91659 6.91667 7.27103 6.91667 7.70825V12.4583C6.91667 12.8955 6.56223 13.2499 6.125 13.2499C5.68778 13.2499 5.33334 12.8955 5.33334 12.4583ZM10.0833 7.70825V12.4583C10.0833 12.8955 10.4378 13.2499 10.875 13.2499C11.3122 13.2499 11.6667 12.8955 11.6667 12.4583V7.70825C11.6667 7.27103 11.3122 6.91659 10.875 6.91659C10.4378 6.91659 10.0833 7.27103 10.0833 7.70825Z" fill="#231F20"/>
</svg>
