<svg width="15" height="15" viewBox="0 0 15 15" fill="none" xmlns="http://www.w3.org/2000/svg">
<path d="M14.7783 13.7138C14.9202 13.8545 15 14.0461 15 14.246C15 14.4459 14.9202 14.6375 14.7783 14.7783C14.6375 14.9202 14.446 15 14.2461 15C14.0462 15 13.8546 14.9202 13.7139 14.7783L7.5 8.55634L1.2861 14.7783C1.14536 14.9202 0.953774 15 0.753912 15C0.554049 15 0.362464 14.9202 0.22172 14.7783C0.079818 14.6375 0 14.4459 0 14.246C0 14.0461 0.079818 13.8545 0.22172 13.7138L6.44311 7.49937L0.22172 1.28495C0.0315865 1.0948 -0.0426692 0.81765 0.0269246 0.557901C0.0965184 0.298152 0.299389 0.0952642 0.559116 0.0256646C0.818843 -0.043935 1.09597 0.0303269 1.2861 0.220477L7.5 6.44239L13.7139 0.220477C14.0078 -0.0734694 14.4844 -0.0734694 14.7783 0.220477C15.0722 0.514423 15.0722 0.991003 14.7783 1.28495L8.55689 7.49937L14.7783 13.7138Z" fill="#231F20"/>
</svg>
