<svg width="14" height="14" viewBox="0 0 14 14" fill="none" xmlns="http://www.w3.org/2000/svg">
<path fill-rule="evenodd" clip-rule="evenodd" d="M3.53333 0.719892L12.1267 5.07323C13.4 5.71989 13.5867 6.59989 13.5867 7.05323C13.5867 7.50656 13.4 8.33323 12.1267 8.99989L3.53333 13.3399C3.17101 13.5302 2.76917 13.6329 2.35999 13.6399C2.01266 13.6449 1.67086 13.5525 1.37333 13.3732C0.720358 12.9248 0.354798 12.1632 0.413326 11.3732V2.71989C0.352005 1.9294 0.718201 1.16649 1.37333 0.719892C2.04307 0.339463 2.86358 0.339463 3.53333 0.719892ZM2.93333 12.1332L11.52 7.77989C11.9733 7.54656 12.2533 7.25323 12.2533 7.01989C12.2533 6.78656 11.9733 6.49323 11.52 6.26656L2.90666 1.91323C2.73059 1.81604 2.53428 1.76126 2.33333 1.75323C2.23982 1.75581 2.14833 1.78097 2.06666 1.82656C1.8264 2.03554 1.70634 2.35069 1.74666 2.66656V11.3732C1.70634 11.6891 1.8264 12.0042 2.06666 12.2132C2.35069 12.3335 2.67612 12.3035 2.93333 12.1332Z" fill="white"/>
</svg>
