<svg width="14" height="14" viewBox="0 0 14 14" fill="none" xmlns="http://www.w3.org/2000/svg">
<path fill-rule="evenodd" clip-rule="evenodd" d="M11.6667 0.333252H2.33334C1.22877 0.333252 0.333344 1.22868 0.333344 2.33325V3.66659C0.333344 4.03478 0.63182 4.33325 1.00001 4.33325H1.66668V11.6666C1.66668 12.7712 2.56211 13.6666 3.66668 13.6666H10.3333C11.4379 13.6666 12.3333 12.7712 12.3333 11.6666V4.33325H13C13.3682 4.33325 13.6667 4.03478 13.6667 3.66659V2.33325C13.6667 1.22868 12.7712 0.333252 11.6667 0.333252ZM11 11.6666C11 12.0348 10.7015 12.3333 10.3333 12.3333H3.66668C3.29849 12.3333 3.00001 12.0348 3.00001 11.6666V4.33325H11V11.6666ZM1.66668 2.99992H12.3333V2.33325C12.3333 1.96506 12.0349 1.66659 11.6667 1.66659H2.33334C1.96515 1.66659 1.66668 1.96506 1.66668 2.33325V2.99992ZM4.33334 10.3333V6.33325C4.33334 5.96506 4.63182 5.66659 5.00001 5.66659C5.3682 5.66659 5.66668 5.96506 5.66668 6.33325V10.3333C5.66668 10.7014 5.3682 10.9999 5.00001 10.9999C4.63182 10.9999 4.33334 10.7014 4.33334 10.3333ZM8.33334 6.33325V10.3333C8.33334 10.7014 8.63182 10.9999 9.00001 10.9999C9.3682 10.9999 9.66668 10.7014 9.66668 10.3333V6.33325C9.66668 5.96506 9.3682 5.66659 9.00001 5.66659C8.63182 5.66659 8.33334 5.96506 8.33334 6.33325Z" fill="white"/>
</svg>
